<svg width="188" height="42" viewBox="0 0 188 42" fill="none" xmlns="http://www.w3.org/2000/svg">
<rect width="188" height="42" rx="6" fill="#333333"/>
<path d="M25.976 21.186C25.9926 22.6969 25.7867 24.202 25.365 25.653C25.0001 26.921 24.3545 28.0905 23.476 29.075C22.5648 30.0546 21.4337 30.8036 20.176 31.26C18.636 31.8058 17.0094 32.0664 15.376 32.029H10V10.878H16.263C17.7024 10.8517 19.1366 11.0566 20.511 11.485C21.6603 11.8498 22.7022 12.4916 23.545 13.354C24.3937 14.2637 25.0174 15.3597 25.366 16.554C25.8006 18.0587 26.0062 19.6201 25.976 21.186ZM21.704 21.445C21.715 20.4187 21.6228 19.3939 21.429 18.386C21.2772 17.5736 20.9589 16.8014 20.494 16.118C20.0509 15.4927 19.443 15.0025 18.738 14.702C17.8696 14.3534 16.9384 14.1882 16.003 14.217H13.976V28.695H15.729C16.5534 28.751 17.38 28.6233 18.149 28.321C18.9181 28.0187 19.6104 27.5494 20.176 26.947C21.192 25.7823 21.7 23.9483 21.7 21.445H21.704ZM28.976 32.029V10.878H41.715V14.244H33.025V19.503H41.311V22.788H33.025V28.663H41.715V32.029H28.976ZM56.419 32.029L52.344 24.245L48.33 32.029H43.524L49.624 21.187L43.924 10.879H48.601L52.436 18.242L56.142 10.879H60.819L55.159 21.186L61.487 32.029H56.419Z" fill="white"/>
<path d="M78.6841 17.6304C78.6841 18.7313 78.5006 19.7512 78.1337 20.6902C77.7667 21.6185 77.2216 22.4225 76.4985 23.1025C75.7753 23.7825 74.8741 24.3114 73.7948 24.6891C72.7155 25.0669 71.4635 25.2558 70.0388 25.2558H68.0151V32.0554H64V10.8954H70.2007C71.5714 10.8954 72.7802 11.0466 73.8272 11.3488C74.8849 11.6402 75.7699 12.0719 76.4823 12.6439C77.2054 13.216 77.7505 13.9229 78.1175 14.7648C78.4952 15.5959 78.6841 16.5511 78.6841 17.6304ZM74.5071 17.9056C74.5071 17.3444 74.4154 16.8371 74.2319 16.3838C74.0592 15.9197 73.7894 15.5257 73.4224 15.2019C73.0663 14.8781 72.6129 14.6299 72.0625 14.4572C71.512 14.2845 70.8591 14.1982 70.1035 14.1982H68.0151V21.953H70.2331C70.9238 21.953 71.5336 21.8613 72.0625 21.6778C72.5914 21.4835 73.0339 21.2083 73.3901 20.8521C73.757 20.496 74.0322 20.0696 74.2157 19.5732C74.41 19.0767 74.5071 18.5208 74.5071 17.9056Z" fill="#ABABAB"/>
<path d="M92.1475 32.0554L90.9818 27.8785H83.5993L82.4013 32.0554H78.451L84.7164 10.8954H90.2857L96.5511 32.0554H92.1475ZM87.3391 14.781L84.5545 24.6244H90.0914L87.3391 14.781Z" fill="#ABABAB"/>
<path d="M111.828 17.6304C111.828 18.7313 111.644 19.7512 111.277 20.6902C110.91 21.6185 110.365 22.4225 109.642 23.1025C108.919 23.7825 108.018 24.3114 106.938 24.6891C105.859 25.0669 104.607 25.2558 103.182 25.2558H101.159V32.0554H97.1437V10.8954H103.344C104.715 10.8954 105.924 11.0466 106.971 11.3488C108.029 11.6402 108.914 12.0719 109.626 12.6439C110.349 13.216 110.894 13.9229 111.261 14.7648C111.639 15.5959 111.828 16.5511 111.828 17.6304ZM107.651 17.9056C107.651 17.3444 107.559 16.8371 107.376 16.3838C107.203 15.9197 106.933 15.5257 106.566 15.2019C106.21 14.8781 105.757 14.6299 105.206 14.4572C104.656 14.2845 104.003 14.1982 103.247 14.1982H101.159V21.953H103.377C104.067 21.953 104.677 21.8613 105.206 21.6778C105.735 21.4835 106.178 21.2083 106.534 20.8521C106.901 20.496 107.176 20.0696 107.359 19.5732C107.554 19.0767 107.651 18.5208 107.651 17.9056Z" fill="#ABABAB"/>
<path d="M124.287 32.0554L121.308 25.2558C121.028 24.6082 120.634 24.1225 120.127 23.7987C119.63 23.4641 119.042 23.2968 118.362 23.2968H117.601V32.0554H113.618V10.8954H119.787C120.952 10.8954 122.01 10.998 122.96 11.2031C123.91 11.3973 124.719 11.7265 125.388 12.1906C126.057 12.6547 126.57 13.2591 126.926 14.0039C127.293 14.7486 127.477 15.6606 127.477 16.7399C127.477 17.5171 127.363 18.2078 127.137 18.8122C126.91 19.4167 126.592 19.9401 126.182 20.3826C125.771 20.8144 125.28 21.1651 124.708 21.435C124.147 21.7048 123.532 21.8937 122.863 22.0016C123.381 22.1095 123.856 22.4064 124.287 22.892C124.719 23.3669 125.151 24.0577 125.583 24.9643L128.966 32.0554H124.287ZM123.3 17.1285C123.3 16.0924 122.971 15.3476 122.312 14.8943C121.654 14.441 120.666 14.2143 119.35 14.2143H117.601V20.1884H119.22C119.835 20.1884 120.391 20.1236 120.888 19.9941C121.395 19.8646 121.827 19.6703 122.183 19.4113C122.539 19.1522 122.814 18.8338 123.008 18.4561C123.203 18.0675 123.3 17.625 123.3 17.1285Z" fill="#ABABAB"/>
<path d="M130.53 14.1496V10.8954H143.903V14.1496H139.24V28.7689H143.903V32.0554H130.53V28.7689H135.193V14.1496H130.53Z" fill="#ABABAB"/>
<path d="M157.172 32.0554L150.809 21.8235V32.0554H146.762V10.8954H150.809V20.5283L157.14 10.8954H161.948L154.76 20.9817L162.32 32.0554H157.172Z" fill="#ABABAB"/>
<path d="M175.007 32.0554L173.841 27.8785H166.458L165.26 32.0554H161.31L167.576 10.8954H173.145L179.41 32.0554H175.007ZM170.198 14.781L167.414 24.6244H172.951L170.198 14.781Z" fill="#ABABAB"/>
<path d="M60.7014 10.8181L60.4563 11.2563L45.9546 37.192L45.8114 37.4481L45.518 37.4481L40.8431 37.4482L39.9924 37.4482L40.406 36.7048L55.9532 8.7573L56.196 8.32084L56.6328 8.56297L60.2622 10.5747L60.7014 10.8181Z" fill="#43AA05"/>
<path d="M40.8431 36.948L45.518 36.9479L60.0197 11.0122L56.3903 9.00048L40.8431 36.948ZM39.1417 37.9485L56.0017 7.64122L61.3829 10.624L46.1048 37.9483L39.1417 37.9485Z" fill="#333333"/>
<path d="M61.0131 5.09908L60.5482 14.4564L53.1492 10.3552L61.0131 5.09908Z" fill="#43AA05"/>
</svg>
